<?xml version="1.0" encoding="UTF-8" standalone="no"?>
<svg width="34px" height="34px" viewBox="0 0 34 34" version="1.1" xmlns="http://www.w3.org/2000/svg" xmlns:xlink="http://www.w3.org/1999/xlink" xmlns:sketch="http://www.bohemiancoding.com/sketch/ns">
    <!-- Generator: Sketch 3.3.3 (12072) - http://www.bohemiancoding.com/sketch -->
    <title>cloudy</title>
    <desc>Created with Sketch.</desc>
    <defs></defs>
    <g id="Page-1" stroke="none" stroke-width="1" fill="none" fill-rule="evenodd" sketch:type="MSPage">
        <g id="14" sketch:type="MSLayerGroup" transform="translate(1.000000, 7.000000)" fill="#CCCCCC">
            <path d="M25,4 C24.668,4 24.339875,4.0234375 24.013,4.0703125 C22.145875,1.5260625 19.19925,0 16,0 C12.80075,0 9.8555,1.5260625 7.987,4.0703125 C7.660125,4.0234375 7.332,4 7,4 C3.140625,4 0,7.140625 0,11 C0,14.859375 3.140625,18 7,18 C7.8555,18 8.69275,17.84375 9.4818125,17.5416875 C11.291625,19.1198125 13.59375,20 16,20 C18.408875,20 20.7083125,19.1198125 22.5181875,17.5416875 C23.30725,17.84375 24.1445,18 25,18 C28.859375,18 32,14.859375 32,11 C32,7.140625 28.859375,4 25,4 L25,4 Z M25,16 C23.9296875,16 22.94275,15.65625 22.128875,15.0833125 C20.6615,16.8515 18.4765,18 16,18 C13.5234375,18 11.3385,16.8515 9.871125,15.0833125 C9.058625,15.65625 8.0703125,16 7,16 C4.23825,16 2,13.76175 2,11 C2,8.23825 4.23825,6 7,6 C7.67575,6 8.316375,6.138 8.902375,6.3801875 C10.2291875,3.7916875 12.8931875,2 16,2 C19.1068125,2 21.770875,3.7916875 23.0963125,6.3801875 C23.683625,6.138 24.3255625,6 25,6 C27.76175,6 30,8.23825 30,11 C30,13.76175 27.76175,16 25,16 L25,16 Z" id="Shape" sketch:type="MSShapeGroup"></path>
        </g>
    </g>
</svg>