<?xml version="1.0" encoding="UTF-8" standalone="no"?>
<svg width="60px" height="60px" viewBox="0 0 60 60" version="1.1" xmlns="http://www.w3.org/2000/svg" xmlns:xlink="http://www.w3.org/1999/xlink" xmlns:sketch="http://www.bohemiancoding.com/sketch/ns">
    <!-- Generator: Sketch 3.3.3 (12072) - http://www.bohemiancoding.com/sketch -->
    <title>microscope</title>
    <desc>Created with Sketch.</desc>
    <defs></defs>
    <g id="Page-1" stroke="none" stroke-width="1" fill="none" fill-rule="evenodd" sketch:type="MSPage">
        <g id="micro-large" sketch:type="MSLayerGroup" transform="translate(17.000000, 21.000000)" fill="#FFFFFF">
            <path d="M19,17.1414328 C20.8513622,15.3265095 22,12.7973941 22,10 C22,5.98054373 19.6285695,2.51496473 16.2085,0.926054499 L16.2085,0.926054499 L14.6996076,3.53953271 C17.2253682,4.59619892 19,7.09085572 19,10 C19,13.8659932 15.8659932,17 12,17 C9.47545204,17 7.26304316,15.6635738 6.03164728,13.6595952 L4.21865272,16.2815133 C6.05186651,18.5495997 8.85655368,20 12,20 C13.4222094,20 14.7750753,19.703105 16,19.1679126 L16,23 L5,23 L5,25 L22,25 L22,23 L19,23 L19,17.1414328 L19,17.1414328 Z M0.829347221,9.84720078 L9.68829087,12.2209476 L9.17065278,14.1527992 L0.311709131,11.7790524 L0.829347221,9.84720078 Z" id="Oval-37" sketch:type="MSShapeGroup"></path>
        </g>
        <path d="M27,12 L26,12 L26,28 L27,28 L27,30 L31,30 L31,28 L32,28 L32,12 L31,12 L31,10 L27,10 L27,12 Z" id="Rectangle-154" fill="#FFFFFF" sketch:type="MSShapeGroup" transform="translate(29.000000, 20.000000) rotate(-330.000000) translate(-29.000000, -20.000000) "></path>
    </g>
</svg>