<?xml version="1.0" encoding="UTF-8" standalone="no"?>
<svg width="60px" height="60px" viewBox="0 0 60 60" version="1.1" xmlns="http://www.w3.org/2000/svg" xmlns:xlink="http://www.w3.org/1999/xlink" xmlns:sketch="http://www.bohemiancoding.com/sketch/ns">
    <!-- Generator: Sketch 3.3.3 (12072) - http://www.bohemiancoding.com/sketch -->
    <title>microscope</title>
    <desc>Created with Sketch.</desc>
    <defs></defs>
    <g id="Page-1" stroke="none" stroke-width="1" fill="none" fill-rule="evenodd" sketch:type="MSPage">
        <g id="Oval-37-+-Rectangle-81-+-Rectangle-84-Copy-3" sketch:type="MSLayerGroup" transform="translate(23.611111, 18.000000)" fill="#FFFFFF">
            <path d="M3.8839746,11.6291651 L3.01794919,11.1291651 L9.01794919,0.736860279 L9.8839746,1.23686028 L9.8839746,1.23686028 L10.3839746,0.370834875 L12.1160254,1.37083488 L11.6160254,2.23686028 L12.4820508,2.73686028 L6.48205081,13.1291651 L5.6160254,12.6291651 L5.1160254,13.4951905 L3.3839746,12.4951905 L3.8839746,11.6291651 L3.8839746,11.6291651 Z M12,17.8989827 C13.237187,16.6364456 14,14.9073051 14,13 C14,10.6271041 12.8193121,8.52997264 11.0133664,7.26403577 L11.0133664,7.26403577 L10.0078899,9.00557226 C11.2178479,9.91813608 12,11.3677273 12,13 C12,15.7614237 9.76142375,18 7,18 C5.58261746,18 4.30298221,17.4102337 3.39310635,16.4627134 C3.06442397,17.032008 2.71729609,17.6332511 2.36411816,18.2449732 C3.59880629,19.3371022 5.22198911,20 7,20 C8.07359729,20 9.09074462,19.758309 10,19.3263688 L10,21 L0,21 L0,23 L14,23 L14,21 L12,21 L12,17.8989827 L12,17.8989827 Z M0.651923789,13.5669873 L5.84807621,16.5669873 L5.34807621,17.4330127 L0.151923789,14.4330127 L0.651923789,13.5669873 Z" id="Oval-37" sketch:type="MSShapeGroup"></path>
        </g>
    </g>
</svg>