<?xml version="1.0" encoding="UTF-8" standalone="no"?>
<svg width="21px" height="21px" viewBox="0 0 21 21" version="1.1" xmlns="http://www.w3.org/2000/svg" xmlns:xlink="http://www.w3.org/1999/xlink" xmlns:sketch="http://www.bohemiancoding.com/sketch/ns">
    <!-- Generator: Sketch 3.3.3 (12072) - http://www.bohemiancoding.com/sketch -->
    <title>velo-medium</title>
    <desc>Created with Sketch.</desc>
    <defs></defs>
    <g id="Page-1" stroke="none" stroke-width="1" fill="none" fill-rule="evenodd" sketch:type="MSPage">
        <circle id="Oval-7-Copy-4" fill="#6ACB75" sketch:type="MSShapeGroup" cx="10.5" cy="10.5" r="9.5"></circle>
        <path d="M13,5.5 L14,6 L14,7.5 L9,7.5 L9,6.5 L10,6.5 L10,6 L9,5.5 L7,5.5 L7,6.5 L8,6.5 L8,7.5 L6.75,9.625 C6.50461,9.56012 6.26579,9.5 6,9.5 C4.34314,9.5 3,10.84314 3,12.5 C3,14.15686 4.34314,15.5 6,15.5 C7.65686,15.5 9,14.15686 9,12.5 L10,12.5 L12.5,8.5 L14,8.5 L14.53125,9.5625 C13.10342,9.79297 12,11.00713 12,12.5 C12,14.15685 13.34315,15.5 15,15.5 C16.65685,15.5 18,14.15685 18,12.5 C18,11.06061 16.97744,9.85339 15.625,9.5625 L15,8 L15,5.5 L14.5,5 L13,4.5 L13,5.5 Z M8.5,8.5 L11.5,8.5 L9.5,11.5 L8.8125,11.5 C8.60043,10.90881 8.22517,10.38432 7.71875,10.03125 L8.5,8.5 L8.5,8.5 Z M6,10.75 C6.9665,10.75 7.75,11.5335 7.75,12.5 C7.75,13.4665 6.9665,14.25 6,14.25 C5.0335,14.25 4.25,13.4665 4.25,12.5 C4.25,11.5335 5.0335,10.75 6,10.75 L6,10.75 Z M15,10.75 C15.9665,10.75 16.75,11.5335 16.75,12.5 C16.75,13.4665 15.9665,14.25 15,14.25 C14.0335,14.25 13.25,13.4665 13.25,12.5 C13.25,11.5335 14.0335,10.75 15,10.75 L15,10.75 Z" id="path5430-copy-3" fill="#FFFFFF" sketch:type="MSShapeGroup"></path>
    </g>
</svg>