<?xml version="1.0" encoding="UTF-8" standalone="no"?>
<svg width="13px" height="13px" viewBox="0 0 13 13" version="1.1" xmlns="http://www.w3.org/2000/svg" xmlns:xlink="http://www.w3.org/1999/xlink" xmlns:sketch="http://www.bohemiancoding.com/sketch/ns">
    <!-- Generator: Sketch 3.3.3 (12072) - http://www.bohemiancoding.com/sketch -->
    <title>velo-small</title>
    <desc>Created with Sketch.</desc>
    <defs></defs>
    <g id="Page-1" stroke="none" stroke-width="1" fill="none" fill-rule="evenodd" sketch:type="MSPage">
        <g id="Oval-7-Copy-7-+-path5464-7-copy-2" sketch:type="MSLayerGroup">
            <circle id="Oval-7-Copy-7" fill="#6ACB75" sketch:type="MSShapeGroup" cx="6.5" cy="6.5" r="6.5"></circle>
            <path d="M7,3.0005 L7,4.0005 L8,4.0005 L8,5.0005 L6,5.0005 L6,4.0005 L5,4.0005 L5,5.0005 L4.5,5.5005 L4,6.0005 L3,6.0005 L2,8.0005 L3,10.0005 L4,10.0005 L5,10.0005 L6,8.0005 L7.5,6.0005 L8.5,6.0005 L6.99995,8 L8,10.0005 L7.99995,10 L8.99995,10 L9.99995,10 L10,10.0005 L10.99995,8 L10,6.0005 L9.99995,6 L9.49995,6 L8.99995,5 L8.99995,4 L7.99995,3 L6.99995,3 L7,3.0005 Z M5,6.0005 L6,6.0005 L6,7.0005 L5,7.0005 L5,8.0005 L5,9.0005 L3,9.0005 L3,8.0005 L3,7.0005 L5,7.0005 L5,6.0005 Z M8,7.0005 L10,7.0005 L10,8.0005 L10,9.0005 L8,9.0005 L8,8.0005 L8,7.0005 Z" id="path5464-7-copy-2" fill="#FFFFFF" sketch:type="MSShapeGroup"></path>
        </g>
    </g>
</svg>