<?xml version="1.0" encoding="UTF-8" standalone="no"?>
<svg width="27px" height="27px" viewBox="0 0 27 27" version="1.1" xmlns="http://www.w3.org/2000/svg" xmlns:xlink="http://www.w3.org/1999/xlink" xmlns:sketch="http://www.bohemiancoding.com/sketch/ns">
    <!-- Generator: Sketch 3.3.3 (12072) - http://www.bohemiancoding.com/sketch -->
    <title>velo-large</title>
    <desc>Created with Sketch.</desc>
    <defs></defs>
    <g id="Page-1" stroke="none" stroke-width="1" fill="none" fill-rule="evenodd" sketch:type="MSPage">
        <circle id="Oval-7-Copy-8" fill="#6ACB75" sketch:type="MSShapeGroup" cx="13.5" cy="13.5" r="12.5"></circle>
        <path d="M15.875,5 C15.31346,5.076 15.23786,6.0579 15.78125,6.2188 L18,7.0938 L18,9 L11,9 L11,8 L12.375,8 C12.70519,8 13,7.7052 13,7.375 C13,7.0448 12.70519,6.7453 12.375,6.75 L8.5,6.75 C8.438,6.74 8.37453,6.74 8.3125,6.75 C7.98523,6.799 7.73216,7.1415 7.78125,7.4688 C7.83035,7.796 8.17274,8.0491 8.5,8 L10,8 L10,9 L8.9375,12.125 C8.63782,12.053 8.32165,12 8,12 C5.79086,12 4,13.7909 4,16 C4,18.2091 5.79086,20 8,20 C10.20914,20 12,18.2091 12,16 C12,15.6996 11.93779,15.4065 11.875,15.125 L13,15.125 C13.19854,15.115 13.39085,15.0098 13.5,14.8438 L16.875,10 L17,10 L18,10 L18.6875,12.0313 C16.62561,12.1919 15,13.8969 15,16 C15,18.2091 16.79086,20 19,20 C21.20914,20 23,18.2091 23,16 C23,14.1718 21.76891,12.6648 20.09375,12.1875 L19,9 L19,6.6563 C19,6.5514 18.9577,6.4453 18.9063,6.3438 C18.9023,6.3338 18.9103,6.3198 18.9063,6.3128 C18.8914,6.2808 18.8634,6.2488 18.8438,6.2188 C18.8118,6.1738 18.7892,6.1328 18.7501,6.0938 C18.7332,6.0778 18.7061,6.0768 18.6876,6.0628 C18.6693,6.0478 18.6443,6.0448 18.6251,6.0318 C18.5927,6.0128 18.5674,5.9818 18.5314,5.9698 L18.5002,5.9388 L18.0627,5.7826 L16.21895,5.0326 C16.15394,5.0076 16.06966,5.0046 16.0002,5.0016 C15.9532,5.0016 15.9214,4.9906 15.8752,5.0016 L15.875,5 Z M11,10 L15.40625,10 L12.6875,13.875 L11.375,13.875 C11.06533,13.3809 10.67588,12.9741 10.1875,12.6563 L11,10 L11,10 Z M8,13.5 C9.38071,13.5 10.5,14.6193 10.5,16 C10.5,17.3807 9.38071,18.5 8,18.5 C6.61929,18.5 5.5,17.3807 5.5,16 C5.5,14.6193 6.61929,13.5 8,13.5 L8,13.5 Z M19,13.5 C20.38071,13.5 21.5,14.6193 21.5,16 C21.5,17.3807 20.38071,18.5 19,18.5 C17.61929,18.5 16.5,17.3807 16.5,16 C16.5,15.8274 16.5292,15.6627 16.5625,15.5 C16.79562,14.3608 17.79188,13.5 19,13.5 L19,13.5 Z" id="path5421" fill="#FFFFFF" sketch:type="MSShapeGroup"></path>
    </g>
</svg>