<?xml version="1.0" encoding="UTF-8" standalone="no"?>
<svg width="34px" height="34px" viewBox="0 0 34 34" version="1.1" xmlns="http://www.w3.org/2000/svg" xmlns:xlink="http://www.w3.org/1999/xlink" xmlns:sketch="http://www.bohemiancoding.com/sketch/ns">
    <!-- Generator: Sketch 3.3.3 (12072) - http://www.bohemiancoding.com/sketch -->
    <title>clear</title>
    <desc>Created with Sketch.</desc>
    <defs></defs>
    <g id="Page-1" stroke="none" stroke-width="1" fill="none" fill-rule="evenodd" sketch:type="MSPage">
        <g id="2" sketch:type="MSLayerGroup" transform="translate(4.000000, 4.000000)" fill="#CCCCCC">
            <path d="M13,6 C9.140625,6 6,9.140625 6,13 C6,16.859375 9.140625,20 13,20 C16.859375,20 20,16.859375 20,13 C20,9.140625 16.859375,6 13,6 L13,6 Z M13,18 C10.23825,18 8,15.76175 8,13 C8,10.23825 10.23825,8 13,8 C15.76175,8 18,10.23825 18,13 C18,15.76175 15.76175,18 13,18 L13,18 Z M13,4 C13.5520625,4 14,3.5520625 14,3 L14,1 C14,0.4479375 13.5520625,0 13,0 C12.4479375,0 12,0.4479375 12,1 L12,3 C12,3.5520625 12.4479375,4 13,4 L13,4 Z M13,22 C12.4479375,22 12,22.4479375 12,23 L12,25 C12,25.5520625 12.4479375,26 13,26 C13.5520625,26 14,25.5520625 14,25 L14,23 C14,22.4479375 13.5520625,22 13,22 L13,22 Z M20.777375,6.6354375 L22.1914375,5.221375 C22.5820625,4.83075 22.5820625,4.1979375 22.1914375,3.8073125 C21.8008125,3.4166875 21.168,3.4166875 20.777375,3.8073125 L19.3633125,5.221375 C18.9726875,5.612 18.9726875,6.2448125 19.3633125,6.6354375 C19.753875,7.0260625 20.38675,7.0260625 20.777375,6.6354375 L20.777375,6.6354375 Z M5.222625,19.364625 L3.8085625,20.7786875 C3.4179375,21.16925 3.4179375,21.8020625 3.8085625,22.1926875 C4.1991875,22.5833125 4.832,22.5833125 5.222625,22.1926875 L6.6366875,20.7786875 C7.0273125,20.38675 7.0273125,19.7551875 6.6366875,19.364625 C6.246125,18.9739375 5.61325,18.972625 5.222625,19.364625 L5.222625,19.364625 Z M4,13 C4,12.4479375 3.5520625,12 3,12 L1,12 C0.4479375,12 0,12.4479375 0,13 C0,13.5520625 0.4479375,14 1,14 L3,14 C3.5520625,14 4,13.5520625 4,13 L4,13 Z M25,12 L23,12 C22.4479375,12 22,12.4479375 22,13 C22,13.5520625 22.4479375,14 23,14 L25,14 C25.5520625,14 26,13.5520625 26,13 C26,12.4479375 25.5520625,12 25,12 L25,12 Z M5.2213125,6.6354375 C5.612,7.0260625 6.2448125,7.0260625 6.635375,6.6354375 C7.0260625,6.2448125 7.0260625,5.612 6.635375,5.221375 L5.2213125,3.8073125 C4.8306875,3.4166875 4.1979375,3.4166875 3.80725,3.8073125 C3.416625,4.1979375 3.416625,4.83075 3.80725,5.221375 L5.2213125,6.6354375 L5.2213125,6.6354375 Z M20.7786875,19.36325 C20.38675,18.972625 19.7551875,18.972625 19.364625,19.36325 C18.9739375,19.753875 18.9726875,20.3866875 19.364625,20.7773125 L20.7786875,22.191375 C21.16925,22.582 21.8020625,22.582 22.1926875,22.191375 C22.5833125,21.80075 22.5833125,21.168 22.1926875,20.7773125 L20.7786875,19.36325 L20.7786875,19.36325 Z" id="Shape" sketch:type="MSShapeGroup"></path>
        </g>
    </g>
</svg>