<?xml version="1.0" encoding="UTF-8" standalone="no"?>
<svg width="24px" height="24px" viewBox="0 0 24 24" version="1.1" xmlns="http://www.w3.org/2000/svg" xmlns:xlink="http://www.w3.org/1999/xlink" xmlns:sketch="http://www.bohemiancoding.com/sketch/ns">
    <!-- Generator: Sketch 3.3.3 (12072) - http://www.bohemiancoding.com/sketch -->
    <title>fullscreen</title>
    <desc>Created with Sketch.</desc>
    <defs></defs>
    <g id="Page-1" stroke="none" stroke-width="1" fill="none" fill-rule="evenodd" sketch:type="MSPage">
        <path d="M20.9142136,18.0857864 L18.363961,15.5355339 L18.363961,15.5355339 L15.5355339,18.363961 L18.0857864,20.9142136 L15,24 L24,24 L24,15 L20.9142136,18.0857864 Z M5.91421356,20.9142136 L8.46446609,18.363961 L8.46446609,18.363961 L5.63603897,15.5355339 L3.08578644,18.0857864 L0,15 L0,24 L9,24 L5.91421356,20.9142136 L5.91421356,20.9142136 Z M18.0857864,3.08578644 L15.5355339,5.63603897 L15.5355339,5.63603897 L18.363961,8.46446609 L20.9142136,5.91421356 L24,9 L24,0 L15,0 L18.0857864,3.08578644 L18.0857864,3.08578644 Z M3.08578644,5.91421356 L5.63603897,8.46446609 L5.63603897,8.46446609 L8.46446609,5.63603897 L5.91421356,3.08578644 L9,0 L0,0 L0,9 L3.08578644,5.91421356 L3.08578644,5.91421356 Z" id="Shape-Copy" fill="#FFFFFF" sketch:type="MSShapeGroup"></path>
    </g>
</svg>