<?xml version="1.0" encoding="UTF-8" standalone="no"?>
<svg width="100px" height="20px" viewBox="0 0 100 20" version="1.1" xmlns="http://www.w3.org/2000/svg" xmlns:xlink="http://www.w3.org/1999/xlink" xmlns:sketch="http://www.bohemiancoding.com/sketch/ns">
    <!-- Generator: Sketch 3.3.3 (12072) - http://www.bohemiancoding.com/sketch -->
    <title>Rectangle 2 Copy 85</title>
    <desc>Created with Sketch.</desc>
    <defs>
        <linearGradient x1="0%" y1="50%" x2="100%" y2="50%" id="linearGradient-1">
            <stop stop-color="#FFFF01" offset="0%"></stop>
            <stop stop-color="#FF399E" offset="59.5523756%"></stop>
            <stop stop-color="#6666FF" offset="100%"></stop>
        </linearGradient>
    </defs>
    <g id="Page-1" stroke="none" stroke-width="1" fill="none" fill-rule="evenodd" sketch:type="MSPage">
        <rect id="Rectangle-1" fill="#000000" sketch:type="MSShapeGroup" x="-585" y="-289" width="1103" height="1164"></rect>
        <rect id="Rectangle-2-Copy-85" fill="url(#linearGradient-1)" sketch:type="MSShapeGroup" transform="translate(50.000000, 10.000000) scale(-1, 1) translate(-50.000000, -10.000000) " x="0" y="0" width="100" height="20"></rect>
        <rect id="Rectangle-47" fill="#FFFFFF" sketch:type="MSShapeGroup" x="38" y="0" width="2" height="20"></rect>
        <path d="M47.0097656,15 L45.0888672,15 L45.0888672,7.76074219 C44.3870408,8.41699547 43.5599006,8.90234218 42.6074219,9.21679688 L42.6074219,7.47363281 C43.1087265,7.30956949 43.6533174,6.99853745 44.2412109,6.54052734 C44.8291045,6.08251724 45.2324208,5.54818014 45.4511719,4.9375 L47.0097656,4.9375 L47.0097656,15 Z M53.1279297,4.9375 C54.0986377,4.9375 54.8574191,5.2838507 55.4042969,5.9765625 C56.0559928,6.7968791 56.3818359,8.15721706 56.3818359,10.0576172 C56.3818359,11.95346 56.0537142,13.3160766 55.3974609,14.1455078 C54.8551405,14.829105 54.0986377,15.1708984 53.1279297,15.1708984 C52.1526644,15.1708984 51.3665394,14.7960649 50.7695312,14.0463867 C50.1725231,13.2967085 49.8740234,11.9602961 49.8740234,10.0371094 C49.8740234,8.15038119 50.2021452,6.79232186 50.8583984,5.96289062 C51.4007189,5.27929346 52.1572217,4.9375 53.1279297,4.9375 L53.1279297,4.9375 Z M53.1279297,6.53027344 C52.8955067,6.53027344 52.688152,6.60432869 52.5058594,6.75244141 C52.3235668,6.90055413 52.1822922,7.16601371 52.0820312,7.54882812 C51.9498691,8.0455754 51.8837891,8.88183006 51.8837891,10.0576172 C51.8837891,11.2334043 51.9430333,12.0411762 52.0615234,12.480957 C52.1800136,12.9207379 52.3292634,13.2135409 52.5092773,13.359375 C52.6892913,13.5052091 52.8955067,13.578125 53.1279297,13.578125 C53.3603527,13.578125 53.5677074,13.5040698 53.75,13.355957 C53.9322926,13.2078443 54.0735672,12.9423847 54.1738281,12.5595703 C54.3059902,12.0673804 54.3720703,11.2334043 54.3720703,10.0576172 C54.3720703,8.88183006 54.3128261,8.07405819 54.1943359,7.63427734 C54.0758458,7.1944965 53.926596,6.90055413 53.746582,6.75244141 C53.5665681,6.60432869 53.3603527,6.53027344 53.1279297,6.53027344 L53.1279297,6.53027344 Z M60.9140625,4.9375 C61.8847705,4.9375 62.643552,5.2838507 63.1904297,5.9765625 C63.8421257,6.7968791 64.1679688,8.15721706 64.1679688,10.0576172 C64.1679688,11.95346 63.839847,13.3160766 63.1835938,14.1455078 C62.6412733,14.829105 61.8847705,15.1708984 60.9140625,15.1708984 C59.9387972,15.1708984 59.1526723,14.7960649 58.5556641,14.0463867 C57.9586559,13.2967085 57.6601562,11.9602961 57.6601562,10.0371094 C57.6601562,8.15038119 57.988278,6.79232186 58.6445312,5.96289062 C59.1868517,5.27929346 59.9433545,4.9375 60.9140625,4.9375 L60.9140625,4.9375 Z M60.9140625,6.53027344 C60.6816395,6.53027344 60.4742848,6.60432869 60.2919922,6.75244141 C60.1096996,6.90055413 59.968425,7.16601371 59.8681641,7.54882812 C59.7360019,8.0455754 59.6699219,8.88183006 59.6699219,10.0576172 C59.6699219,11.2334043 59.7291661,12.0411762 59.8476562,12.480957 C59.9661464,12.9207379 60.1153962,13.2135409 60.2954102,13.359375 C60.4754241,13.5052091 60.6816395,13.578125 60.9140625,13.578125 C61.1464855,13.578125 61.3538402,13.5040698 61.5361328,13.355957 C61.7184254,13.2078443 61.8597,12.9423847 61.9599609,12.5595703 C62.0921231,12.0673804 62.1582031,11.2334043 62.1582031,10.0576172 C62.1582031,8.88183006 62.0989589,8.07405819 61.9804688,7.63427734 C61.8619786,7.1944965 61.7127288,6.90055413 61.5327148,6.75244141 C61.3527009,6.60432869 61.1464855,6.53027344 60.9140625,6.53027344 L60.9140625,6.53027344 Z" id="100-copy" fill="#FFFFFF" sketch:type="MSShapeGroup"></path>
    </g>
</svg>