<?xml version="1.0" encoding="UTF-8" standalone="no"?>
<svg width="111px" height="24px" viewBox="0 0 111 24" version="1.1" xmlns="http://www.w3.org/2000/svg" xmlns:xlink="http://www.w3.org/1999/xlink" xmlns:sketch="http://www.bohemiancoding.com/sketch/ns">
    <!-- Generator: Sketch 3.3.3 (12072) - http://www.bohemiancoding.com/sketch -->
    <title>Imported Layers Copy 6</title>
    <desc>Created with Sketch.</desc>
    <defs></defs>
    <g id="Page-1" stroke="none" stroke-width="1" fill="none" fill-rule="evenodd" sketch:type="MSPage">
        <g id="Imported-Layers-Copy-6" sketch:type="MSLayerGroup" fill="#FFFFFF">
            <path d="M63.75,0 L67.5,0 L67.5,24 L63.75,24 L63.75,0 Z" id="Fill-1" sketch:type="MSShapeGroup"></path>
            <path d="M98.9903483,0.192595041 L90.2816692,23.9903922 L94.0962135,23.9903922 L96.5227002,16.9949752 L104.158139,16.9949752 L106.56136,23.9903922 L110.302239,23.9903922 L101.690689,0.192595041 L98.9903483,0.192595041 Z M102.970298,13.5611901 L97.710739,13.5611901 L100.34032,5.90241322 L102.970298,13.5611901 L102.970298,13.5611901 Z" id="Fill-2" sketch:type="MSShapeGroup"></path>
            <path d="M83.9954714,3.74971489 L86.9862808,6.96357025 L89.4245946,4.52370248 L85.0962011,0.192595041 L77.329353,0.192595041 L71.2584147,6.03626875 L71.2584147,18.0108929 L77.3325242,23.8716694 L85.0924352,23.8716694 L89.4245946,19.5373884 L86.9862808,17.0975207 C86.9862808,17.0975207 84.9924079,19.1991736 83.9954714,20.25 L78.7607872,20.25 L75.0136783,16.5263324 L75.0136783,7.55235056 L78.7607872,3.74971489 L83.9954714,3.74971489 Z" id="Fill-3" sketch:type="MSShapeGroup"></path>
            <path d="M59.0007727,4.55821488 L54.75,0 L43.5,0 L43.5,24 L54.8604754,23.8716694 L59.9780459,18.7589608 L59.9780459,14.7210789 L56.5914473,10.8809667 L59.0007727,8.60905785 L59.0007727,4.55821488 Z M46.9469558,9.57639669 L46.9469558,3.65791736 L53.2242959,3.65771901 L55.5533989,5.98790083 L55.5533989,7.17957025 L53.1596811,9.57639669 L46.9469558,9.57639669 L46.9469558,9.57639669 Z M46.9469558,20.4063471 L46.9469558,13.041124 L53.6807612,13.041124 L56.3862549,15.7489587 L56.3862549,17.4654545 L53.4482671,20.4055537 L46.9469558,20.4063471 L46.9469558,20.4063471 Z" id="Fill-4" sketch:type="MSShapeGroup"></path>
            <path d="M39.7341943,5.27522314 L34.9276266,0 L22.5,0 L22.5,24 L26.25,23.9989544 L26.2644007,14.2319327 L31.5367464,14.2319327 L35.6952367,23.9989543 L39.7341943,23.9989543 L35.2066987,14.0082645 L39.7341943,9.66550756 L39.7341943,5.27522314 Z M33.760648,3.75224839 L36.118242,6.27391736 L36.118242,8.21791736 L33.7606477,10.5598558 L26.2539744,10.5598558 L26.2539744,3.75224839 L33.760648,3.75224839 Z" id="Fill-5" sketch:type="MSShapeGroup"></path>
            <path d="M11.6118205,20.25 L6.4584991,20.25 L3.75,16.176595 L3.75,0 L0,0 L0,17.4 L4.8,24 L13.2,24 L18,17.4 L17.9488201,0 L14.25,0 L14.25,16.1734215 L11.6118205,20.25 Z" id="Fill-6" sketch:type="MSShapeGroup"></path>
        </g>
    </g>
</svg>