<?xml version="1.0" encoding="UTF-8" standalone="no"?>
<svg width="73px" height="16px" viewBox="0 0 73 16" version="1.1" xmlns="http://www.w3.org/2000/svg" xmlns:xlink="http://www.w3.org/1999/xlink" xmlns:sketch="http://www.bohemiancoding.com/sketch/ns">
    <!-- Generator: Sketch 3.3.3 (12072) - http://www.bohemiancoding.com/sketch -->
    <title>Imported Layers Copy 7</title>
    <desc>Created with Sketch.</desc>
    <defs></defs>
    <g id="Page-1" stroke="none" stroke-width="1" fill="none" fill-rule="evenodd" sketch:type="MSPage">
        <g id="Imported-Layers-Copy-7" sketch:type="MSLayerGroup" fill="#FFFFFF">
            <path d="M41.9256757,0 L44.3918919,0 L44.3918919,16 L41.9256757,16 L41.9256757,0 Z" id="Fill-1" sketch:type="MSShapeGroup"></path>
            <path d="M65.1017606,0.128396694 L59.3744311,15.9935948 L61.8830954,15.9935948 L63.4788929,11.3299835 L68.5003975,11.3299835 L70.0808947,15.9935948 L72.5411125,15.9935948 L66.8776601,0.128396694 L65.1017606,0.128396694 Z M67.719205,9.04079339 L64.2602157,9.04079339 L65.98958,3.93494215 L67.719205,9.04079339 L67.719205,9.04079339 Z" id="Fill-2" sketch:type="MSShapeGroup"></path>
            <path d="M55.240265,2.49980993 L57.2071937,4.64238017 L58.8107694,3.01580165 L55.9641683,0.128396694 L50.8562411,0.128396694 L46.8636421,4.02417916 L46.8636421,12.0072619 L50.8583268,15.9144463 L55.9616916,15.9144463 L58.8107694,13.0249256 L57.2071937,11.3983471 C57.2071937,11.3983471 55.8959079,12.799449 55.240265,13.5 L51.7976348,13.5 L49.3333199,11.0175549 L49.3333199,5.03490037 L51.7976348,2.49980993 L55.240265,2.49980993 Z" id="Fill-3" sketch:type="MSShapeGroup"></path>
            <path d="M38.80231,3.03880992 L36.0067568,0 L28.6081081,0 L28.6081081,16 L36.0794118,15.9144463 L39.4450211,12.5059739 L39.4450211,9.81405262 L37.2177987,7.25397782 L38.80231,5.7393719 L38.80231,3.03880992 Z M30.875025,6.38426446 L30.875025,2.43861157 L35.0033658,2.43847934 L36.5351182,3.99193388 L36.5351182,4.78638017 L34.9608714,6.38426446 L30.875025,6.38426446 L30.875025,6.38426446 Z M30.875025,13.6042314 L30.875025,8.69408264 L35.3035637,8.69408264 L37.0828523,10.4993058 L37.0828523,11.6436364 L35.1506622,13.6037025 L30.875025,13.6042314 L30.875025,13.6042314 Z" id="Fill-4" sketch:type="MSShapeGroup"></path>
            <path d="M26.1314971,3.51681542 L22.9704211,0 L14.7972973,0 L14.7972973,16 L17.2635135,15.9993029 L17.2729843,9.48795514 L20.7403828,9.48795514 L23.4752457,15.9993029 L26.1314971,15.9993029 L23.153955,9.33884298 L26.1314971,6.4436717 L26.1314971,3.51681542 Z M22.2029487,2.50149893 L23.7534384,4.18261157 L23.7534384,5.47861157 L22.2029485,7.03990387 L17.2661273,7.03990387 L17.2661273,2.50149893 L22.2029487,2.50149893 Z" id="Fill-5" sketch:type="MSShapeGroup"></path>
            <path d="M7.63660265,13.5 L4.24748139,13.5 L2.46621622,10.7843967 L2.46621622,0 L0,0 L0,11.6 L3.15675676,16 L8.68108108,16 L11.8378378,11.6 L11.804179,0 L9.37162162,0 L9.37162162,10.782281 L7.63660265,13.5 Z" id="Fill-6" sketch:type="MSShapeGroup"></path>
        </g>
    </g>
</svg>